<svg class="diagram-root" style="background: #f5f6f6" xmlns="http://www.w3.org/2000/svg" xmlns:xlink="http://www.w3.org/1999/xlink"><style>.diagram-root { font-family: "Helvetica Neue", sans-serif; font-size: 12px; } .t { overflow: visible; } .t-bg { y: 40; fill: #fff;   } .th { fill: #005aa0;   } .tht { fill: #fff; font-size: 14px;  } .tf { fill: #323c46; overflow: visible; } .tf.pk { fill: #005aa0; font-weight: bold; } .tf.fk { font-weight: bold; } .ty { fill: #adb1b5; font-weight: normal; text-anchor: end; } .r { fill: transparent; stroke: #c3c3c3; stroke-width: 1; } .l { stroke: 1; } .i { fill: #c2c7ce; stroke: #c2c7ce; } .i.ix { fill: #afb3b6; stroke: #000; } .fa { fill: transparent; overflow: visible; } .fa .bg.hover { fill: #f7f7f7; } .c { cy: 12; r: 4; stroke: #d2d2dc; fill: #d2d2dc; } .hr { fill: transparent; stroke: #323c46; stroke-opacity: 0.035; stroke-width: 13; } .dc { stroke: #fa5a3c; fill: #fa5a3c; } .x { stroke: white; stroke-width: 1; } .hl .th { fill: #1b9bff; } .hl .tht {  } .fhl .bg { fill: #e7f4ff; } .fhls .bg {  } .r.hl { stroke: #1b9bff; } .dim { opacity: 0.25; }</style><g class="drawing-wrapper" transform="translate(-39, -186) scale(1,1)"><g class="rs"><path d="M 245.06 273 m -1, 0 a 1,1 0 1,0 2,0 a 1,1 0 1,0 -2,0 M 245.06 273 m -0.5, 0 a 0.5,0.5 0 1,0 1,0 a 0.5,0.5 0 1,0 -1,0  M245.06 273 L245.06 273 257.06 273 M 245.06 279 m -1, 0 a 1,1 0 1,0 2,0 a 1,1 0 1,0 -2,0 M 245.06 279 m -0.5, 0 a 0.5,0.5 0 1,0 1,0 a 0.5,0.5 0 1,0 -1,0  M245.06 279 L245.06 279 252.06 273 245.06 267 M 245.06 267 m -1, 0 a 1,1 0 1,0 2,0 a 1,1 0 1,0 -2,0 M 245.06 267 m -0.5, 0 a 0.5,0.5 0 1,0 1,0 a 0.5,0.5 0 1,0 -1,0  M257.06 273 Q 276.04 273, 295.03 348.5 T 333 424 M 345 424 m -1, 0 a 1,1 0 1,0 2,0 a 1,1 0 1,0 -2,0 M 345 424 m -0.5, 0 a 0.5,0.5 0 1,0 1,0 a 0.5,0.5 0 1,0 -1,0  M345 424 L345 424 333 424 M339 430 L339 430 339 418" id="h1950675103" class="r"></path><path d="M 642 552 m -1, 0 a 1,1 0 1,0 2,0 a 1,1 0 1,0 -2,0 M 642 552 m -0.5, 0 a 0.5,0.5 0 1,0 1,0 a 0.5,0.5 0 1,0 -1,0  M642 552 L642 552 654 552 M 642 558 m -1, 0 a 1,1 0 1,0 2,0 a 1,1 0 1,0 -2,0 M 642 558 m -0.5, 0 a 0.5,0.5 0 1,0 1,0 a 0.5,0.5 0 1,0 -1,0  M642 558 L642 558 649 552 642 546 M 642 546 m -1, 0 a 1,1 0 1,0 2,0 a 1,1 0 1,0 -2,0 M 642 546 m -0.5, 0 a 0.5,0.5 0 1,0 1,0 a 0.5,0.5 0 1,0 -1,0  M654 552 Q 671 552, 688 497 T 722 442 M 734 442 m -1, 0 a 1,1 0 1,0 2,0 a 1,1 0 1,0 -2,0 M 734 442 m -0.5, 0 a 0.5,0.5 0 1,0 1,0 a 0.5,0.5 0 1,0 -1,0  M734 442 L734 442 722 442 M728 448 L728 448 728 436" id="h1578466457" class="r"></path><path d="M 461.29 424 m -1, 0 a 1,1 0 1,0 2,0 a 1,1 0 1,0 -2,0 M 461.29 424 m -0.5, 0 a 0.5,0.5 0 1,0 1,0 a 0.5,0.5 0 1,0 -1,0  M461.29 424 L461.29 424 473.29 424 M 461.29 430 m -1, 0 a 1,1 0 1,0 2,0 a 1,1 0 1,0 -2,0 M 461.29 430 m -0.5, 0 a 0.5,0.5 0 1,0 1,0 a 0.5,0.5 0 1,0 -1,0  M461.29 430 L461.29 430 468.29 424 461.29 418 M 461.29 418 m -1, 0 a 1,1 0 1,0 2,0 a 1,1 0 1,0 -2,0 M 461.29 418 m -0.5, 0 a 0.5,0.5 0 1,0 1,0 a 0.5,0.5 0 1,0 -1,0  M473.29 424 Q 489.97 424, 506.65 500.5 T 540 577 M 552 577 m -1, 0 a 1,1 0 1,0 2,0 a 1,1 0 1,0 -2,0 M 552 577 m -0.5, 0 a 0.5,0.5 0 1,0 1,0 a 0.5,0.5 0 1,0 -1,0  M552 577 L552 577 540 577 M546 583 L546 583 546 571" id="h3335357949" class="r"></path><path d="M 461.29 449 m -1, 0 a 1,1 0 1,0 2,0 a 1,1 0 1,0 -2,0 M 461.29 449 m -0.5, 0 a 0.5,0.5 0 1,0 1,0 a 0.5,0.5 0 1,0 -1,0  M461.29 449 L461.29 449 473.29 449 M 461.29 455 m -1, 0 a 1,1 0 1,0 2,0 a 1,1 0 1,0 -2,0 M 461.29 455 m -0.5, 0 a 0.5,0.5 0 1,0 1,0 a 0.5,0.5 0 1,0 -1,0  M461.29 455 L461.29 455 468.29 449 461.29 443 M 461.29 443 m -1, 0 a 1,1 0 1,0 2,0 a 1,1 0 1,0 -2,0 M 461.29 443 m -0.5, 0 a 0.5,0.5 0 1,0 1,0 a 0.5,0.5 0 1,0 -1,0  M473.29 449 Q 489.97 449, 506.65 500.5 T 540 552 M 552 552 m -1, 0 a 1,1 0 1,0 2,0 a 1,1 0 1,0 -2,0 M 552 552 m -0.5, 0 a 0.5,0.5 0 1,0 1,0 a 0.5,0.5 0 1,0 -1,0  M552 552 L552 552 540 552 M546 558 L546 558 546 546" id="h1990908834" class="r"></path><path d="M 210.38 491 m -1, 0 a 1,1 0 1,0 2,0 a 1,1 0 1,0 -2,0 M 210.38 491 m -0.5, 0 a 0.5,0.5 0 1,0 1,0 a 0.5,0.5 0 1,0 -1,0  M210.38 491 L210.38 491 222.38 491 M 210.38 497 m -1, 0 a 1,1 0 1,0 2,0 a 1,1 0 1,0 -2,0 M 210.38 497 m -0.5, 0 a 0.5,0.5 0 1,0 1,0 a 0.5,0.5 0 1,0 -1,0  M210.38 497 L210.38 497 217.38 491 210.38 485 M 210.38 485 m -1, 0 a 1,1 0 1,0 2,0 a 1,1 0 1,0 -2,0 M 210.38 485 m -0.5, 0 a 0.5,0.5 0 1,0 1,0 a 0.5,0.5 0 1,0 -1,0  M222.38 491 Q 250.04 491, 277.69 470 T 333 449 M 345 449 m -1, 0 a 1,1 0 1,0 2,0 a 1,1 0 1,0 -2,0 M 345 449 m -0.5, 0 a 0.5,0.5 0 1,0 1,0 a 0.5,0.5 0 1,0 -1,0  M345 449 L345 449 333 449 M339 455 L339 455 339 443" id="h1915938444" class="r"></path><path d="M 210.38 516 m -1, 0 a 1,1 0 1,0 2,0 a 1,1 0 1,0 -2,0 M 210.38 516 m -0.5, 0 a 0.5,0.5 0 1,0 1,0 a 0.5,0.5 0 1,0 -1,0  M210.38 516 L210.38 516 222.38 516 M 210.38 522 m -1, 0 a 1,1 0 1,0 2,0 a 1,1 0 1,0 -2,0 M 210.38 522 m -0.5, 0 a 0.5,0.5 0 1,0 1,0 a 0.5,0.5 0 1,0 -1,0  M210.38 522 L210.38 522 217.38 516 210.38 510 M 210.38 510 m -1, 0 a 1,1 0 1,0 2,0 a 1,1 0 1,0 -2,0 M 210.38 510 m -0.5, 0 a 0.5,0.5 0 1,0 1,0 a 0.5,0.5 0 1,0 -1,0  M222.38 516 Q 250.54 516, 278.69 566 T 335 616 M 347 616 m -1, 0 a 1,1 0 1,0 2,0 a 1,1 0 1,0 -2,0 M 347 616 m -0.5, 0 a 0.5,0.5 0 1,0 1,0 a 0.5,0.5 0 1,0 -1,0  M347 616 L347 616 335 616 M341 622 L341 622 341 610" id="h1537058300" class="r"></path></g><g class="hrs"></g><g class="ts"><svg width="146.06" height="100" x="99" y="216" id="h475896179" class="t"><rect height="40" width="146.06" class="th"></rect><text x="13" y="25" class="tht">departments</text><rect height="60" width="146.06" class="t-bg"></rect><text x="13" y="61" class="tf fk">dept_no<tspan x="133.06" class="ty">varchar</tspan></text><text x="13" y="86" class="tf">dept_name<tspan x="133.06" class="ty">varchar</tspan></text></svg><svg width="90" height="100" x="552" y="495" id="h1090417462" class="t"><rect height="40" width="90" class="th"></rect><text x="13" y="25" class="tht">dept_emp</text><rect height="60" width="90" class="t-bg"></rect><text x="13" y="61" class="tf fk">emp_no</text><text x="13" y="86" class="tf fk">dept_no</text></svg><svg width="116.29" height="100" x="345" y="367" id="h1676682957" class="t"><rect height="40" width="116.29" class="th"></rect><text x="13" y="25" class="tht">dept_manager</text><rect height="60" width="116.29" class="t-bg"></rect><text x="13" y="61" class="tf fk">dept_no</text><text x="13" y="86" class="tf fk">emp_no</text></svg><svg width="149.38" height="225" x="61" y="434" id="h1639608377" class="t"><rect height="40" width="149.38" class="th"></rect><text x="13" y="25" class="tht">employees</text><rect height="185" width="149.38" class="t-bg"></rect><text x="13" y="61" class="tf pk">emp_no<tspan x="136.38" class="ty">varchar</tspan></text><path d="M7,14A2,2 0 0,1 5,12A2,2 0 0,1 7,10A2,2 0 0,1 9,12A2,2 0 0,1 7,14M12.65,10C11.83,7.67 9.61,6 7, 6A6, 6 0 0, 0 1, 12A6, 6 0 0, 0 7, 18C9.61, 18 11.83, 16.33 12.65, 14H17V18H21V14H23V10H12.65Z" class="i pk" transform="translate(76.366328125, 48) scale(0.65)"></path><text x="13" y="86" class="tf fk">emp_title_id</text><text x="13" y="111" class="tf">birth_date</text><text x="13" y="136" class="tf">first_name</text><text x="13" y="161" class="tf">last_name</text><text x="13" y="186" class="tf">sex</text><text x="13" y="211" class="tf">hire_date</text></svg><svg width="90" height="100" x="734" y="385" id="h2472833127" class="t"><rect height="40" width="90" class="th"></rect><text x="13" y="25" class="tht">salaries</text><rect height="60" width="90" class="t-bg"></rect><text x="13" y="61" class="tf fk">emp_no</text><text x="13" y="86" class="tf">salary</text></svg><svg width="90" height="100" x="347" y="559" id="h311790747" class="t"><rect height="40" width="90" class="th"></rect><text x="13" y="25" class="tht">titles</text><rect height="60" width="90" class="t-bg"></rect><text x="13" y="61" class="tf fk">title_id</text><text x="13" y="86" class="tf">title</text></svg></g></g><text class="qdbd-link" x="10" y="20">www.quickdatabasediagrams.com</text></svg>